<svg xmlns="http://www.w3.org/2000/svg" version="1.1" xmlns:xlink="http://www.w3.org/1999/xlink" xmlns:svgjs="http://svgjs.com/svgjs" width="1440" height="560" preserveAspectRatio="none" viewBox="0 0 1440 560"><g mask="url(&quot;#SvgjsMask1000&quot;)" fill="none"><path d="M1559.92 99.27C1451.88 100.76 1358.4 229.08 1147.36 228.07 936.32 227.06 862.35-62.79 734.8-79.02" stroke="rgba(51,121,194,0.58)" stroke-width="2"></path><path d="M1606 437.54C1470.43 436.83 1370.88 333.52 1076.61 319.94 782.34 306.36 711.63-58.06 547.22-79.64" stroke="rgba(51,121,194,0.58)" stroke-width="2"></path><path d="M1672.8 181.98C1527.78 183.63 1403.78 346.81 1115.89 344.38 828 341.95 736.63-82.96 558.98-110.64" stroke="rgba(51,121,194,0.58)" stroke-width="2"></path><path d="M1614.13 493.8C1506.15 493.57 1401.02 423.8 1187.91 423.8 974.81 423.8 1005.62 509.83 761.7 493.8 517.77 477.77 498.57 4.73 335.48-55.21" stroke="rgba(51,121,194,0.58)" stroke-width="2"></path><path d="M1569.78 257.45C1394.41 259.43 1243.16 455.92 896.19 453.45 549.22 450.98 434.67-45.92 222.6-76.38" stroke="rgba(51,121,194,0.58)" stroke-width="2"></path></g><defs><mask id="SvgjsMask1000"><rect width="1440" height="560" fill="#ffffff"></rect></mask></defs></svg>